<svg width="70" height="70" viewBox="0 0 70 70" fill="none" xmlns="http://www.w3.org/2000/svg">
<path d="M55.4167 26.2499C55.4167 30.4791 54.1625 34.3583 52.0042 37.5958C48.8542 42.2625 43.8667 45.5583 38.0625 46.4041C37.0709 46.5791 36.05 46.6666 35 46.6666C33.95 46.6666 32.9292 46.5791 31.9375 46.4041C26.1334 45.5583 21.1459 42.2625 17.9959 37.5958C15.8375 34.3583 14.5834 30.4791 14.5834 26.2499C14.5834 14.9624 23.7125 5.83325 35 5.83325C46.2875 5.83325 55.4167 14.9624 55.4167 26.2499Z" stroke="#9A46EC" stroke-width="2.5" stroke-linecap="round" stroke-linejoin="round"/>
<path d="M61.9792 53.8709L57.1667 55.0083C56.0875 55.2708 55.2417 56.0875 55.0084 57.1667L53.9875 61.4542C53.4334 63.7875 50.4584 64.4876 48.9125 62.6501L35 46.6667L21.0875 62.6792C19.5417 64.5167 16.5667 63.8166 16.0125 61.4833L14.9917 57.1958C14.7292 56.1166 13.8834 55.2708 12.8334 55.0375L8.02086 53.9001C5.80419 53.3751 5.01669 50.6041 6.62086 49L17.9959 37.625C21.1459 42.2917 26.1334 45.5876 31.9375 46.4334C32.9292 46.6084 33.95 46.6959 35 46.6959C36.05 46.6959 37.0709 46.6084 38.0625 46.4334C43.8667 45.5876 48.8542 42.2917 52.0042 37.625L63.3792 49C64.9834 50.575 64.1959 53.3459 61.9792 53.8709Z" stroke="#9A46EC" stroke-width="2.5" stroke-linecap="round" stroke-linejoin="round"/>
<path d="M36.6916 17.4417L38.4125 20.8834C38.6458 21.3501 39.2583 21.8167 39.8125 21.9042L42.9333 22.4292C44.9166 22.7501 45.3833 24.2084 43.9541 25.6376L41.5333 28.0584C41.125 28.4667 40.8916 29.2542 41.0375 29.8376L41.7375 32.8417C42.2916 35.2042 41.0375 36.1375 38.9375 34.8834L36.0208 33.1625C35.4958 32.8417 34.6208 32.8417 34.0958 33.1625L31.1791 34.8834C29.0791 36.1084 27.825 35.2042 28.3791 32.8417L29.0791 29.8376C29.1958 29.2834 28.9916 28.4667 28.5833 28.0584L26.1625 25.6376C24.7333 24.2084 25.2 22.7792 27.1833 22.4292L30.3041 21.9042C30.8291 21.8167 31.4416 21.3501 31.675 20.8834L33.3958 17.4417C34.2416 15.5751 35.7583 15.5751 36.6916 17.4417Z" stroke="#9A46EC" stroke-width="2.5" stroke-linecap="round" stroke-linejoin="round"/>
</svg>
